<mxfile host="app.diagrams.net" agent="Mozilla/5.0 (Macintosh; Intel Mac OS X 10_15_7) AppleWebKit/537.36 (KHTML, like Gecko) Chrome/138.0.0.0 Safari/537.36" version="28.0.7">
  <diagram name="Page-1" id="5W2K01XvRVl10ZCS3Ld5">
    <mxGraphModel dx="3257" dy="2047" grid="1" gridSize="10" guides="1" tooltips="1" connect="1" arrows="1" fold="1" page="1" pageScale="1" pageWidth="1169" pageHeight="827" background="light-dark(#FFFFFF,#000000)" math="0" shadow="0">
      <root>
        <mxCell id="0" />
        <mxCell id="1" parent="0" />
        <mxCell id="E5y9FCjBc9JPn02OFwkt-53" value="" style="rounded=1;whiteSpace=wrap;html=1;shadow=1;" vertex="1" parent="1">
          <mxGeometry x="67" y="-190" width="433" height="270" as="geometry" />
        </mxCell>
        <mxCell id="E5y9FCjBc9JPn02OFwkt-47" value="" style="rounded=1;whiteSpace=wrap;html=1;" vertex="1" parent="1">
          <mxGeometry x="1110" y="-400" width="194.5" height="400" as="geometry" />
        </mxCell>
        <mxCell id="E5y9FCjBc9JPn02OFwkt-45" value="" style="rounded=1;whiteSpace=wrap;html=1;" vertex="1" parent="1">
          <mxGeometry x="520" y="10" width="590" height="330" as="geometry" />
        </mxCell>
        <mxCell id="E5y9FCjBc9JPn02OFwkt-1" value="Error Handling" style="sketch=0;points=[[0,0,0],[0.25,0,0],[0.5,0,0],[0.75,0,0],[1,0,0],[0,1,0],[0.25,1,0],[0.5,1,0],[0.75,1,0],[1,1,0],[0,0.25,0],[0,0.5,0],[0,0.75,0],[1,0.25,0],[1,0.5,0],[1,0.75,0]];outlineConnect=0;fontColor=#232F3E;fillColor=#ED7100;strokeColor=#ffffff;dashed=0;verticalLabelPosition=bottom;verticalAlign=top;align=center;html=1;fontSize=12;fontStyle=0;aspect=fixed;shape=mxgraph.aws4.resourceIcon;resIcon=mxgraph.aws4.lambda;" vertex="1" parent="1">
          <mxGeometry x="690" y="-190" width="60" height="60" as="geometry" />
        </mxCell>
        <mxCell id="E5y9FCjBc9JPn02OFwkt-3" value="Data Ingestion&lt;div&gt;Job&lt;/div&gt;" style="sketch=0;points=[[0,0,0],[0.25,0,0],[0.5,0,0],[0.75,0,0],[1,0,0],[0,1,0],[0.25,1,0],[0.5,1,0],[0.75,1,0],[1,1,0],[0,0.25,0],[0,0.5,0],[0,0.75,0],[1,0.25,0],[1,0.5,0],[1,0.75,0]];outlineConnect=0;fontColor=#232F3E;fillColor=light-dark(#0050EF,#0440B9);strokeColor=#ffffff;dashed=0;verticalLabelPosition=bottom;verticalAlign=top;align=center;html=1;fontSize=12;fontStyle=0;aspect=fixed;shape=mxgraph.aws4.resourceIcon;resIcon=mxgraph.aws4.database_migration_service;gradientColor=none;" vertex="1" parent="1">
          <mxGeometry x="80" y="-130" width="60" height="60" as="geometry" />
        </mxCell>
        <mxCell id="E5y9FCjBc9JPn02OFwkt-5" value="Store or Retrieve&lt;div&gt;Config JSON&lt;/div&gt;" style="sketch=0;points=[[0,0,0],[0.25,0,0],[0.5,0,0],[0.75,0,0],[1,0,0],[0,1,0],[0.25,1,0],[0.5,1,0],[0.75,1,0],[1,1,0],[0,0.25,0],[0,0.5,0],[0,0.75,0],[1,0.25,0],[1,0.5,0],[1,0.75,0]];outlineConnect=0;fontColor=#232F3E;fillColor=#7AA116;strokeColor=#ffffff;dashed=0;verticalLabelPosition=bottom;verticalAlign=top;align=center;html=1;fontSize=12;fontStyle=0;aspect=fixed;shape=mxgraph.aws4.resourceIcon;resIcon=mxgraph.aws4.s3;" vertex="1" parent="1">
          <mxGeometry x="1177.5" y="-110" width="64" height="64" as="geometry" />
        </mxCell>
        <mxCell id="E5y9FCjBc9JPn02OFwkt-6" value="&lt;font style=&quot;color: light-dark(rgb(0, 0, 0), rgb(255, 255, 255));&quot;&gt;Update Status in&amp;nbsp;&lt;/font&gt;&lt;div&gt;&lt;font style=&quot;color: light-dark(rgb(0, 0, 0), rgb(255, 255, 255));&quot;&gt;Database&lt;/font&gt;&lt;/div&gt;" style="sketch=0;points=[[0,0,0],[0.25,0,0],[0.5,0,0],[0.75,0,0],[1,0,0],[0,1,0],[0.25,1,0],[0.5,1,0],[0.75,1,0],[1,1,0],[0,0.25,0],[0,0.5,0],[0,0.75,0],[1,0.25,0],[1,0.5,0],[1,0.75,0]];outlineConnect=0;fontColor=#ffffff;fillColor=light-dark(#0050EF,#0440B9);strokeColor=#001DBC;dashed=0;verticalLabelPosition=bottom;verticalAlign=top;align=center;html=1;fontSize=12;fontStyle=0;aspect=fixed;shape=mxgraph.aws4.resourceIcon;resIcon=mxgraph.aws4.dynamodb;gradientColor=none;" vertex="1" parent="1">
          <mxGeometry x="1177.5" y="-350" width="60" height="60" as="geometry" />
        </mxCell>
        <mxCell id="E5y9FCjBc9JPn02OFwkt-7" value="&lt;span style=&quot;forced-color-adjust: none; font-family: Helvetica; font-size: 12px; font-style: normal; font-variant-ligatures: normal; font-variant-caps: normal; font-weight: 400; letter-spacing: normal; orphans: 2; text-align: center; text-indent: 0px; text-transform: none; widows: 2; word-spacing: 0px; -webkit-text-stroke-width: 0px; white-space: nowrap; text-decoration-thickness: initial; text-decoration-style: initial; text-decoration-color: initial; background-color: light-dark(#ffffff, var(--ge-dark-color, #121212)); box-shadow: none !important;&quot;&gt;&lt;font style=&quot;forced-color-adjust: none; box-shadow: none !important; color: light-dark(rgb(0, 0, 0), rgb(255, 255, 255));&quot;&gt;L&lt;span style=&quot;forced-color-adjust: none; box-shadow: none !important;&quot;&gt;og Outputs and&lt;/span&gt;&lt;/font&gt;&lt;/span&gt;&lt;div style=&quot;forced-color-adjust: none; font-family: Helvetica; font-size: 12px; font-style: normal; font-variant-ligatures: normal; font-variant-caps: normal; font-weight: 400; letter-spacing: normal; orphans: 2; text-align: center; text-indent: 0px; text-transform: none; widows: 2; word-spacing: 0px; -webkit-text-stroke-width: 0px; white-space: nowrap; text-decoration-thickness: initial; text-decoration-style: initial; text-decoration-color: initial; box-shadow: none !important;&quot;&gt;&lt;span style=&quot;forced-color-adjust: none; background-color: light-dark(#ffffff, var(--ge-dark-color, #121212)); box-shadow: none !important;&quot;&gt;&lt;font style=&quot;color: light-dark(rgb(0, 0, 0), rgb(255, 255, 255));&quot;&gt;Errors&lt;/font&gt;&lt;/span&gt;&lt;/div&gt;" style="sketch=0;points=[[0,0,0],[0.25,0,0],[0.5,0,0],[0.75,0,0],[1,0,0],[0,1,0],[0.25,1,0],[0.5,1,0],[0.75,1,0],[1,1,0],[0,0.25,0],[0,0.5,0],[0,0.75,0],[1,0.25,0],[1,0.5,0],[1,0.75,0]];points=[[0,0,0],[0.25,0,0],[0.5,0,0],[0.75,0,0],[1,0,0],[0,1,0],[0.25,1,0],[0.5,1,0],[0.75,1,0],[1,1,0],[0,0.25,0],[0,0.5,0],[0,0.75,0],[1,0.25,0],[1,0.5,0],[1,0.75,0]];outlineConnect=0;fontColor=#232F3E;fillColor=#E7157B;strokeColor=#ffffff;dashed=0;verticalLabelPosition=bottom;verticalAlign=top;align=center;html=1;fontSize=12;fontStyle=0;aspect=fixed;shape=mxgraph.aws4.resourceIcon;resIcon=mxgraph.aws4.cloudwatch_2;" vertex="1" parent="1">
          <mxGeometry x="1177.5" y="-230" width="60" height="60" as="geometry" />
        </mxCell>
        <mxCell id="E5y9FCjBc9JPn02OFwkt-15" style="edgeStyle=orthogonalEdgeStyle;rounded=1;orthogonalLoop=1;jettySize=auto;html=1;exitX=1;exitY=0.5;exitDx=0;exitDy=0;exitPerimeter=0;entryX=0;entryY=0.5;entryDx=0;entryDy=0;curved=0;" edge="1" parent="1" source="E5y9FCjBc9JPn02OFwkt-8" target="E5y9FCjBc9JPn02OFwkt-14">
          <mxGeometry relative="1" as="geometry" />
        </mxCell>
        <mxCell id="E5y9FCjBc9JPn02OFwkt-50" style="edgeStyle=orthogonalEdgeStyle;rounded=1;orthogonalLoop=1;jettySize=auto;html=1;exitX=1;exitY=0;exitDx=0;exitDy=0;exitPerimeter=0;curved=0;" edge="1" parent="1" source="E5y9FCjBc9JPn02OFwkt-8" target="E5y9FCjBc9JPn02OFwkt-47">
          <mxGeometry relative="1" as="geometry">
            <Array as="points">
              <mxPoint x="324" y="-80" />
            </Array>
          </mxGeometry>
        </mxCell>
        <mxCell id="E5y9FCjBc9JPn02OFwkt-51" style="edgeStyle=orthogonalEdgeStyle;rounded=1;orthogonalLoop=1;jettySize=auto;html=1;exitX=1;exitY=1;exitDx=0;exitDy=0;exitPerimeter=0;entryX=0;entryY=0.75;entryDx=0;entryDy=0;curved=0;" edge="1" parent="1" source="E5y9FCjBc9JPn02OFwkt-8" target="E5y9FCjBc9JPn02OFwkt-47">
          <mxGeometry relative="1" as="geometry">
            <mxPoint x="1110" y="-50" as="targetPoint" />
            <Array as="points">
              <mxPoint x="324" y="-40" />
              <mxPoint x="580" y="-40" />
              <mxPoint x="580" y="-90" />
              <mxPoint x="1110" y="-90" />
              <mxPoint x="1110" y="-92" />
            </Array>
          </mxGeometry>
        </mxCell>
        <mxCell id="E5y9FCjBc9JPn02OFwkt-8" value="Data Processing&lt;div&gt;Job&lt;/div&gt;" style="sketch=0;points=[[0,0,0],[0.25,0,0],[0.5,0,0],[0.75,0,0],[1,0,0],[0,1,0],[0.25,1,0],[0.5,1,0],[0.75,1,0],[1,1,0],[0,0.25,0],[0,0.5,0],[0,0.75,0],[1,0.25,0],[1,0.5,0],[1,0.75,0]];outlineConnect=0;fontColor=#232F3E;fillColor=#8C4FFF;strokeColor=#ffffff;dashed=0;verticalLabelPosition=bottom;verticalAlign=top;align=center;html=1;fontSize=12;fontStyle=0;aspect=fixed;shape=mxgraph.aws4.resourceIcon;resIcon=mxgraph.aws4.glue;" vertex="1" parent="1">
          <mxGeometry x="260" y="-84" width="64" height="64" as="geometry" />
        </mxCell>
        <mxCell id="E5y9FCjBc9JPn02OFwkt-10" style="edgeStyle=orthogonalEdgeStyle;rounded=0;orthogonalLoop=1;jettySize=auto;html=1;exitX=1;exitY=0.5;exitDx=0;exitDy=0;" edge="1" parent="1" source="E5y9FCjBc9JPn02OFwkt-9">
          <mxGeometry relative="1" as="geometry">
            <mxPoint x="-120" y="109.6470588235295" as="targetPoint" />
          </mxGeometry>
        </mxCell>
        <mxCell id="E5y9FCjBc9JPn02OFwkt-9" value="Start Airflow&lt;div&gt;Trigger&lt;/div&gt;" style="rounded=1;whiteSpace=wrap;html=1;" vertex="1" parent="1">
          <mxGeometry x="-290" y="80" width="120" height="60" as="geometry" />
        </mxCell>
        <mxCell id="E5y9FCjBc9JPn02OFwkt-11" value="Main Job" style="rounded=1;whiteSpace=wrap;html=1;" vertex="1" parent="1">
          <mxGeometry x="-120" y="80" width="120" height="60" as="geometry" />
        </mxCell>
        <mxCell id="E5y9FCjBc9JPn02OFwkt-12" style="edgeStyle=orthogonalEdgeStyle;rounded=1;orthogonalLoop=1;jettySize=auto;html=1;exitX=1;exitY=0.25;exitDx=0;exitDy=0;entryX=0;entryY=0.5;entryDx=0;entryDy=0;entryPerimeter=0;curved=0;" edge="1" parent="1" source="E5y9FCjBc9JPn02OFwkt-11" target="E5y9FCjBc9JPn02OFwkt-3">
          <mxGeometry relative="1" as="geometry" />
        </mxCell>
        <mxCell id="E5y9FCjBc9JPn02OFwkt-13" style="edgeStyle=orthogonalEdgeStyle;rounded=1;orthogonalLoop=1;jettySize=auto;html=1;exitX=1;exitY=0.5;exitDx=0;exitDy=0;exitPerimeter=0;entryX=0;entryY=0.25;entryDx=0;entryDy=0;entryPerimeter=0;curved=0;" edge="1" parent="1" source="E5y9FCjBc9JPn02OFwkt-3" target="E5y9FCjBc9JPn02OFwkt-8">
          <mxGeometry relative="1" as="geometry" />
        </mxCell>
        <mxCell id="E5y9FCjBc9JPn02OFwkt-19" style="edgeStyle=orthogonalEdgeStyle;rounded=1;orthogonalLoop=1;jettySize=auto;html=1;exitX=1;exitY=0.5;exitDx=0;exitDy=0;entryX=0;entryY=0.5;entryDx=0;entryDy=0;curved=0;" edge="1" parent="1" source="E5y9FCjBc9JPn02OFwkt-14" target="E5y9FCjBc9JPn02OFwkt-16">
          <mxGeometry relative="1" as="geometry" />
        </mxCell>
        <mxCell id="E5y9FCjBc9JPn02OFwkt-14" value="Data integration&lt;div&gt;Job&lt;/div&gt;" style="whiteSpace=wrap;html=1;aspect=fixed;" vertex="1" parent="1">
          <mxGeometry x="420" y="-30" width="70" height="70" as="geometry" />
        </mxCell>
        <mxCell id="E5y9FCjBc9JPn02OFwkt-16" value="End" style="whiteSpace=wrap;html=1;aspect=fixed;" vertex="1" parent="1">
          <mxGeometry x="680" y="-70" width="70" height="70" as="geometry" />
        </mxCell>
        <mxCell id="E5y9FCjBc9JPn02OFwkt-32" style="edgeStyle=orthogonalEdgeStyle;rounded=1;orthogonalLoop=1;jettySize=auto;html=1;exitX=1;exitY=0.5;exitDx=0;exitDy=0;exitPerimeter=0;entryX=0;entryY=0.5;entryDx=0;entryDy=0;curved=0;" edge="1" parent="1" source="E5y9FCjBc9JPn02OFwkt-20" target="E5y9FCjBc9JPn02OFwkt-21">
          <mxGeometry relative="1" as="geometry" />
        </mxCell>
        <mxCell id="E5y9FCjBc9JPn02OFwkt-20" value="&lt;font style=&quot;color: light-dark(rgb(255, 255, 255), rgb(255, 255, 255));&quot;&gt;Main Job Table&lt;/font&gt;" style="sketch=0;points=[[0,0,0],[0.25,0,0],[0.5,0,0],[0.75,0,0],[1,0,0],[0,1,0],[0.25,1,0],[0.5,1,0],[0.75,1,0],[1,1,0],[0,0.25,0],[0,0.5,0],[0,0.75,0],[1,0.25,0],[1,0.5,0],[1,0.75,0]];outlineConnect=0;fontColor=#ffffff;fillColor=light-dark(#0050EF,#0440B9);strokeColor=#001DBC;dashed=0;verticalLabelPosition=bottom;verticalAlign=top;align=center;html=1;fontSize=12;fontStyle=0;aspect=fixed;shape=mxgraph.aws4.resourceIcon;resIcon=mxgraph.aws4.dynamodb;gradientColor=none;" vertex="1" parent="1">
          <mxGeometry x="595" y="170" width="70" height="70" as="geometry" />
        </mxCell>
        <mxCell id="E5y9FCjBc9JPn02OFwkt-21" value="Parent Child&lt;div&gt;Relationship&lt;/div&gt;" style="whiteSpace=wrap;html=1;aspect=fixed;" vertex="1" parent="1">
          <mxGeometry x="760" y="170" width="70" height="70" as="geometry" />
        </mxCell>
        <mxCell id="E5y9FCjBc9JPn02OFwkt-22" value="&lt;font style=&quot;color: light-dark(rgb(0, 0, 0), rgb(255, 255, 255));&quot;&gt;Data Ingestion&amp;nbsp;&lt;/font&gt;&lt;div&gt;&lt;font style=&quot;color: light-dark(rgb(0, 0, 0), rgb(255, 255, 255));&quot;&gt;Table&lt;/font&gt;&lt;/div&gt;" style="sketch=0;points=[[0,0,0],[0.25,0,0],[0.5,0,0],[0.75,0,0],[1,0,0],[0,1,0],[0.25,1,0],[0.5,1,0],[0.75,1,0],[1,1,0],[0,0.25,0],[0,0.5,0],[0,0.75,0],[1,0.25,0],[1,0.5,0],[1,0.75,0]];outlineConnect=0;fontColor=#ffffff;fillColor=light-dark(#0050EF,#0440B9);strokeColor=#001DBC;dashed=0;verticalLabelPosition=bottom;verticalAlign=top;align=center;html=1;fontSize=12;fontStyle=0;aspect=fixed;shape=mxgraph.aws4.resourceIcon;resIcon=mxgraph.aws4.dynamodb;gradientColor=none;" vertex="1" parent="1">
          <mxGeometry x="990" y="20" width="60" height="60" as="geometry" />
        </mxCell>
        <mxCell id="E5y9FCjBc9JPn02OFwkt-23" value="&lt;font style=&quot;color: light-dark(rgb(255, 255, 255), rgb(255, 255, 255));&quot;&gt;Data integration&lt;br&gt;Table&lt;/font&gt;" style="sketch=0;points=[[0,0,0],[0.25,0,0],[0.5,0,0],[0.75,0,0],[1,0,0],[0,1,0],[0.25,1,0],[0.5,1,0],[0.75,1,0],[1,1,0],[0,0.25,0],[0,0.5,0],[0,0.75,0],[1,0.25,0],[1,0.5,0],[1,0.75,0]];outlineConnect=0;fontColor=#ffffff;fillColor=light-dark(#0050EF,#0440B9);strokeColor=#001DBC;dashed=0;verticalLabelPosition=bottom;verticalAlign=top;align=center;html=1;fontSize=12;fontStyle=0;aspect=fixed;shape=mxgraph.aws4.resourceIcon;resIcon=mxgraph.aws4.dynamodb;gradientColor=none;" vertex="1" parent="1">
          <mxGeometry x="990" y="240" width="60" height="60" as="geometry" />
        </mxCell>
        <mxCell id="E5y9FCjBc9JPn02OFwkt-24" value="&lt;font style=&quot;color: light-dark(rgb(255, 255, 255), rgb(255, 255, 255));&quot;&gt;Data Processing&lt;br&gt;Table&lt;/font&gt;" style="sketch=0;points=[[0,0,0],[0.25,0,0],[0.5,0,0],[0.75,0,0],[1,0,0],[0,1,0],[0.25,1,0],[0.5,1,0],[0.75,1,0],[1,1,0],[0,0.25,0],[0,0.5,0],[0,0.75,0],[1,0.25,0],[1,0.5,0],[1,0.75,0]];outlineConnect=0;fontColor=#ffffff;fillColor=light-dark(#0050EF,#0440B9);strokeColor=#001DBC;dashed=0;verticalLabelPosition=bottom;verticalAlign=top;align=center;html=1;fontSize=12;fontStyle=0;aspect=fixed;shape=mxgraph.aws4.resourceIcon;resIcon=mxgraph.aws4.dynamodb;gradientColor=none;" vertex="1" parent="1">
          <mxGeometry x="990" y="130" width="60" height="60" as="geometry" />
        </mxCell>
        <mxCell id="E5y9FCjBc9JPn02OFwkt-30" style="edgeStyle=orthogonalEdgeStyle;rounded=1;orthogonalLoop=1;jettySize=auto;html=1;exitX=1;exitY=0.5;exitDx=0;exitDy=0;entryX=0;entryY=0.5;entryDx=0;entryDy=0;entryPerimeter=0;curved=0;" edge="1" parent="1" source="E5y9FCjBc9JPn02OFwkt-11" target="E5y9FCjBc9JPn02OFwkt-20">
          <mxGeometry relative="1" as="geometry" />
        </mxCell>
        <mxCell id="E5y9FCjBc9JPn02OFwkt-31" style="edgeStyle=orthogonalEdgeStyle;rounded=1;orthogonalLoop=1;jettySize=auto;html=1;exitX=1;exitY=0.75;exitDx=0;exitDy=0;exitPerimeter=0;entryX=0;entryY=0.5;entryDx=0;entryDy=0;entryPerimeter=0;curved=0;" edge="1" parent="1" source="E5y9FCjBc9JPn02OFwkt-3" target="E5y9FCjBc9JPn02OFwkt-22">
          <mxGeometry relative="1" as="geometry">
            <Array as="points">
              <mxPoint x="170" y="-85" />
              <mxPoint x="170" y="50" />
            </Array>
          </mxGeometry>
        </mxCell>
        <mxCell id="E5y9FCjBc9JPn02OFwkt-33" style="edgeStyle=orthogonalEdgeStyle;rounded=1;orthogonalLoop=1;jettySize=auto;html=1;exitX=1;exitY=0.25;exitDx=0;exitDy=0;entryX=0;entryY=0.75;entryDx=0;entryDy=0;entryPerimeter=0;curved=0;" edge="1" parent="1" source="E5y9FCjBc9JPn02OFwkt-21" target="E5y9FCjBc9JPn02OFwkt-22">
          <mxGeometry relative="1" as="geometry" />
        </mxCell>
        <mxCell id="E5y9FCjBc9JPn02OFwkt-34" style="edgeStyle=orthogonalEdgeStyle;rounded=1;orthogonalLoop=1;jettySize=auto;html=1;exitX=1;exitY=0.5;exitDx=0;exitDy=0;entryX=0;entryY=0.75;entryDx=0;entryDy=0;entryPerimeter=0;curved=0;" edge="1" parent="1" source="E5y9FCjBc9JPn02OFwkt-21" target="E5y9FCjBc9JPn02OFwkt-24">
          <mxGeometry relative="1" as="geometry">
            <Array as="points">
              <mxPoint x="930" y="205" />
              <mxPoint x="930" y="175" />
            </Array>
          </mxGeometry>
        </mxCell>
        <mxCell id="E5y9FCjBc9JPn02OFwkt-35" style="edgeStyle=orthogonalEdgeStyle;rounded=1;orthogonalLoop=1;jettySize=auto;html=1;exitX=1;exitY=0.75;exitDx=0;exitDy=0;entryX=0;entryY=0.25;entryDx=0;entryDy=0;entryPerimeter=0;curved=0;" edge="1" parent="1" source="E5y9FCjBc9JPn02OFwkt-21" target="E5y9FCjBc9JPn02OFwkt-23">
          <mxGeometry relative="1" as="geometry" />
        </mxCell>
        <mxCell id="E5y9FCjBc9JPn02OFwkt-37" style="edgeStyle=orthogonalEdgeStyle;rounded=1;orthogonalLoop=1;jettySize=auto;html=1;exitX=1;exitY=0.75;exitDx=0;exitDy=0;exitPerimeter=0;entryX=0;entryY=0.5;entryDx=0;entryDy=0;entryPerimeter=0;curved=0;" edge="1" parent="1" source="E5y9FCjBc9JPn02OFwkt-8" target="E5y9FCjBc9JPn02OFwkt-24">
          <mxGeometry relative="1" as="geometry">
            <Array as="points">
              <mxPoint x="324" y="-30" />
              <mxPoint x="350" y="-30" />
              <mxPoint x="350" y="80" />
              <mxPoint x="657" y="80" />
              <mxPoint x="657" y="160" />
            </Array>
          </mxGeometry>
        </mxCell>
        <mxCell id="E5y9FCjBc9JPn02OFwkt-38" style="edgeStyle=orthogonalEdgeStyle;rounded=1;orthogonalLoop=1;jettySize=auto;html=1;exitX=1;exitY=0.75;exitDx=0;exitDy=0;entryX=0;entryY=0.75;entryDx=0;entryDy=0;entryPerimeter=0;curved=0;" edge="1" parent="1" source="E5y9FCjBc9JPn02OFwkt-14" target="E5y9FCjBc9JPn02OFwkt-23">
          <mxGeometry relative="1" as="geometry">
            <Array as="points">
              <mxPoint x="490" y="30" />
              <mxPoint x="550" y="30" />
              <mxPoint x="550" y="285" />
            </Array>
          </mxGeometry>
        </mxCell>
        <mxCell id="E5y9FCjBc9JPn02OFwkt-42" style="edgeStyle=orthogonalEdgeStyle;rounded=1;orthogonalLoop=1;jettySize=auto;html=1;exitX=1;exitY=0.25;exitDx=0;exitDy=0;exitPerimeter=0;entryX=0;entryY=0.25;entryDx=0;entryDy=0;entryPerimeter=0;curved=0;" edge="1" parent="1" source="E5y9FCjBc9JPn02OFwkt-3" target="E5y9FCjBc9JPn02OFwkt-1">
          <mxGeometry relative="1" as="geometry" />
        </mxCell>
        <mxCell id="E5y9FCjBc9JPn02OFwkt-43" style="edgeStyle=orthogonalEdgeStyle;rounded=1;orthogonalLoop=1;jettySize=auto;html=1;exitX=1;exitY=0.25;exitDx=0;exitDy=0;exitPerimeter=0;entryX=0;entryY=0.5;entryDx=0;entryDy=0;entryPerimeter=0;curved=0;" edge="1" parent="1" source="E5y9FCjBc9JPn02OFwkt-8" target="E5y9FCjBc9JPn02OFwkt-1">
          <mxGeometry relative="1" as="geometry" />
        </mxCell>
        <mxCell id="E5y9FCjBc9JPn02OFwkt-44" style="edgeStyle=orthogonalEdgeStyle;rounded=1;orthogonalLoop=1;jettySize=auto;html=1;exitX=1;exitY=0.25;exitDx=0;exitDy=0;entryX=0;entryY=0.75;entryDx=0;entryDy=0;entryPerimeter=0;curved=0;" edge="1" parent="1" source="E5y9FCjBc9JPn02OFwkt-14" target="E5y9FCjBc9JPn02OFwkt-1">
          <mxGeometry relative="1" as="geometry">
            <Array as="points">
              <mxPoint x="530" y="-12" />
              <mxPoint x="530" y="-125" />
              <mxPoint x="680" y="-125" />
              <mxPoint x="680" y="-145" />
            </Array>
          </mxGeometry>
        </mxCell>
        <mxCell id="E5y9FCjBc9JPn02OFwkt-46" value="&lt;font style=&quot;font-size: 11px; background-color: light-dark(rgb(255, 255, 255), rgb(0, 0, 0));&quot;&gt;DATABASE STRUCTURE&lt;/font&gt;" style="text;html=1;align=center;verticalAlign=middle;resizable=0;points=[];autosize=1;strokeColor=none;fillColor=none;" vertex="1" parent="1">
          <mxGeometry x="555" y="10" width="150" height="30" as="geometry" />
        </mxCell>
        <mxCell id="E5y9FCjBc9JPn02OFwkt-48" style="edgeStyle=orthogonalEdgeStyle;rounded=1;orthogonalLoop=1;jettySize=auto;html=1;exitX=1;exitY=0.5;exitDx=0;exitDy=0;exitPerimeter=0;entryX=-0.002;entryY=0.616;entryDx=0;entryDy=0;entryPerimeter=0;curved=0;" edge="1" parent="1" source="E5y9FCjBc9JPn02OFwkt-1" target="E5y9FCjBc9JPn02OFwkt-47">
          <mxGeometry relative="1" as="geometry">
            <Array as="points">
              <mxPoint x="1110" y="-160" />
            </Array>
          </mxGeometry>
        </mxCell>
        <mxCell id="E5y9FCjBc9JPn02OFwkt-49" style="edgeStyle=orthogonalEdgeStyle;rounded=1;orthogonalLoop=1;jettySize=auto;html=1;exitX=1;exitY=0;exitDx=0;exitDy=0;exitPerimeter=0;entryX=0;entryY=0.5;entryDx=0;entryDy=0;entryPerimeter=0;curved=0;" edge="1" parent="1" source="E5y9FCjBc9JPn02OFwkt-3" target="E5y9FCjBc9JPn02OFwkt-7">
          <mxGeometry relative="1" as="geometry">
            <Array as="points">
              <mxPoint x="140" y="-200" />
            </Array>
          </mxGeometry>
        </mxCell>
        <mxCell id="E5y9FCjBc9JPn02OFwkt-52" value="STATUS AND METADATA" style="text;html=1;align=center;verticalAlign=middle;resizable=0;points=[];autosize=1;strokeColor=none;fillColor=none;" vertex="1" parent="1">
          <mxGeometry x="1127.25" y="-390" width="160" height="30" as="geometry" />
        </mxCell>
        <mxCell id="E5y9FCjBc9JPn02OFwkt-55" value="&lt;span style=&quot;font-size: 11px; background-color: light-dark(rgb(0, 0, 0), rgb(0, 0, 0));&quot;&gt;&lt;font style=&quot;color: light-dark(rgb(0, 0, 0), rgb(255, 255, 255));&quot;&gt;JOB SEQUENCE&lt;/font&gt;&lt;/span&gt;" style="text;html=1;align=center;verticalAlign=middle;resizable=0;points=[];autosize=1;strokeColor=none;fillColor=none;" vertex="1" parent="1">
          <mxGeometry x="67" y="-180" width="110" height="30" as="geometry" />
        </mxCell>
      </root>
    </mxGraphModel>
  </diagram>
</mxfile>
